<svg xmlns="http://www.w3.org/2000/svg" viewBox="0 0 400 120" fill="#1a1a18">
  <!-- Utensils icon block -->
  <g transform="translate(0, 5)">
    <!-- Fork -->
    <rect x="8" y="0" width="4" height="50" rx="2"/>
    <rect x="18" y="0" width="4" height="50" rx="2"/>
    <rect x="28" y="0" width="4" height="50" rx="2"/>
    <rect x="6" y="45" width="28" height="6" rx="3"/>
    <rect x="16" y="48" width="8" height="62" rx="4"/>
    <!-- Knife -->
    <path d="M46 0 C46 0 46 60 46 60 L46 110 L54 110 L54 60 C60 55 62 30 62 0 Z" />
    <!-- Spatula -->
    <rect x="70" y="50" width="12" height="60" rx="4"/>
    <rect x="68" y="0" width="16" height="52" rx="5"/>
    <!-- Whisk -->
    <path d="M94 110 L98 110 L98 55 C104 40 108 20 104 5 C100 -2 94 -2 90 5 C86 20 90 40 96 55 Z"/>
    <!-- Peeler / last utensil -->
    <rect x="114" y="50" width="10" height="60" rx="4"/>
    <path d="M112 0 L126 0 L126 48 L112 48 Z" />
    <rect x="116" y="8" width="6" height="32" rx="3" fill="white"/>
  </g>
  <!-- Text: ARKANSAS LOCAL FOOD NETWORK -->
  <text x="148" y="30" font-family="'Arial Black', 'Helvetica Neue', Arial, sans-serif" font-weight="900" font-size="22" letter-spacing="1">ARKANSAS</text>
  <text x="148" y="58" font-family="'Arial Black', 'Helvetica Neue', Arial, sans-serif" font-weight="900" font-size="22" letter-spacing="1">LOCAL FOOD</text>
  <text x="148" y="86" font-family="'Arial Black', 'Helvetica Neue', Arial, sans-serif" font-weight="900" font-size="22" letter-spacing="1">NETWORK</text>
  <!-- Tagline -->
  <text x="148" y="108" font-family="Arial, Helvetica, sans-serif" font-weight="400" font-style="italic" font-size="14" letter-spacing="0.5">Eat local. Grow local.</text>
</svg>
